<svg xmlns:xlink="http://www.w3.org/1999/xlink" xmlns="http://www.w3.org/2000/svg" fill="#000000" data-name="Layer 1" viewBox="15.43364429473877 16.14815330505371 67.04920196533203 69.32141876220703" x="0px" y="0px" width="67.04920196533203"  height="69.32141876220703" ><title>Digital Network Node Symbol</title><path d="M77.22,51.81A8.61,8.61,0,0,0,66.66,55L55.92,50.5a5.78,5.78,0,0,0,0-1.55L70.4,43.08a5.91,5.91,0,0,0,7,2h0a6,6,0,1,0-8.15-4.76L54.79,46.17a5.75,5.75,0,0,0-1.08-1.1L61,27.8a5.79,5.79,0,0,0,6.22-3.51h0a5.86,5.86,0,1,0-9,2.34L51,43.88a5.81,5.81,0,0,0-1.56,0L45.81,35A9.46,9.46,0,1,0,43,36.14L46.61,45a5.81,5.81,0,0,0-1.11,1.09L24.88,37.35A4.71,4.71,0,0,0,22,32.65h0a4.72,4.72,0,1,0,1.69,7.47l20.61,8.73a5.81,5.81,0,0,0,0,1.56L33.86,54.64A9,9,0,1,0,35,57.42l10.47-4.24a5.82,5.82,0,0,0,1.09,1.11L41.41,66.41a5.11,5.11,0,1,0,4.19,7.07h0a5,5,0,0,0-1.43-5.9L49.3,55.46a4.41,4.41,0,0,0,1.55,0l7.3,18a6.61,6.61,0,1,0,9.94,2.92h0a6.63,6.63,0,0,0-7.16-4l-7.3-18a5.76,5.76,0,0,0,1.1-1.08l10.76,4.56A8.6,8.6,0,1,0,77.22,51.81ZM72.44,38.38a3,3,0,1,1,3.84,3.91h0A3,3,0,0,1,72.44,38.38ZM59.22,20.9a2.86,2.86,0,1,1,1.52,3.74A2.86,2.86,0,0,1,59.22,20.9Zm-15.87,12a6.27,6.27,0,1,1,3.42-3.37A6.23,6.23,0,0,1,43.34,32.91ZM21.78,37.66a1.72,1.72,0,1,1-.91-2.25A1.72,1.72,0,0,1,21.78,37.66Zm6.69,27.21a6,6,0,1,1,3.29-7.77A6,6,0,0,1,28.47,64.87Zm14.37,7.43a2.12,2.12,0,1,1,0-1.62A2.11,2.11,0,0,1,42.84,72.31ZM60.6,75.54a3.62,3.62,0,1,1-2,4.71A3.6,3.6,0,0,1,60.6,75.54Zm-8-24.82a2.69,2.69,0,1,1-1.43-3.53A2.69,2.69,0,0,1,52.6,50.72ZM79,61.91a5.6,5.6,0,1,1-3-7.34A5.61,5.61,0,0,1,79,61.91Z"/></svg>